<svg width="138" height="138" viewBox="0 0 138 138" fill="none" xmlns="http://www.w3.org/2000/svg">
<path d="M39.4824 55.9762C39.8331 59.34 41.9836 62.1316 45.0513 63.5432C51.4251 66.4729 62.6175 71.1562 69 71.1562C75.3825 71.1562 86.5749 66.47 92.9488 63.5432C96.0164 62.1345 98.1669 59.3371 98.5176 55.9762C98.8597 52.6786 99.1875 47.748 99.1875 40.9688C99.1875 34.1895 98.8597 29.2589 98.5176 25.9612C98.1669 22.5975 96.0164 19.8059 92.9459 18.3942C86.5749 15.4646 75.3854 10.7812 69 10.7812C62.6175 10.7812 51.4251 15.4675 45.0513 18.3942C41.9836 19.803 39.8331 22.6004 39.4824 25.9612C39.1402 29.2589 38.8125 34.1895 38.8125 40.9688C38.8125 47.748 39.1402 52.6786 39.4824 55.9762Z" stroke="#FDF3FF" stroke-width="5" stroke-linejoin="round"/>
<path d="M38.8125 22.8562C38.8125 22.8562 62.905 34.9312 69 34.9312C75.095 34.9312 99.1875 22.8562 99.1875 22.8562" stroke="#FDF3FF" stroke-width="5" stroke-linejoin="round"/>
<path d="M69 34.9312V71.1562" stroke="#FDF3FF" stroke-width="5" stroke-linecap="round" stroke-linejoin="round"/>
<path d="M9.29488 108.445C9.64563 111.809 11.7961 114.6 14.8666 116.012C21.2376 118.942 32.43 123.625 38.8125 123.625C45.195 123.625 56.3874 118.939 62.7612 116.012C65.8289 114.603 67.9794 111.806 68.3301 108.445C68.6723 105.147 69 100.217 69 93.4375C69 86.6582 68.6723 81.7276 68.3301 78.43C67.9794 75.0663 65.8289 72.2746 62.7612 70.863C56.3874 67.9334 45.195 63.25 38.8125 63.25C32.43 63.25 21.2376 67.9363 14.8638 70.863C11.7961 72.2718 9.64563 75.0691 9.29488 78.43C8.95275 81.7276 8.625 86.6582 8.625 93.4375C8.625 100.217 8.95275 105.147 9.29488 108.445Z" stroke="#FDF3FF" stroke-width="5" stroke-linejoin="round"/>
<path d="M8.625 75.325C8.625 75.325 32.7175 87.3999 38.8125 87.3999C44.9075 87.3999 69 75.325 69 75.325" stroke="#FDF3FF" stroke-width="5" stroke-linejoin="round"/>
<path d="M38.8125 87.3999V123.625" stroke="#FDF3FF" stroke-width="5" stroke-linecap="round" stroke-linejoin="round"/>
<path d="M69.6699 108.445C70.0206 111.809 72.1711 114.6 75.2388 116.012C81.6155 118.942 92.805 123.625 99.1875 123.625C105.57 123.625 116.762 118.939 123.136 116.012C126.204 114.603 128.354 111.806 128.705 108.445C129.047 105.147 129.375 100.217 129.375 93.4375C129.375 86.6582 129.047 81.7276 128.705 78.43C128.354 75.0663 126.204 72.2746 123.133 70.863C116.762 67.9334 105.576 63.25 99.1875 63.25C92.805 63.25 81.6126 67.9363 75.2388 70.863C72.1711 72.2718 70.0206 75.0691 69.6699 78.43C69.3277 81.7276 69 86.6582 69 93.4375C69 100.217 69.3277 105.147 69.6699 108.445Z" stroke="#FDF3FF" stroke-width="5" stroke-linejoin="round"/>
<path d="M69 75.325C69 75.325 93.0925 87.3999 99.1875 87.3999C105.282 87.3999 129.375 75.325 129.375 75.325" stroke="#FDF3FF" stroke-width="5" stroke-linejoin="round"/>
<path d="M99.1875 87.3999V123.625" stroke="#FDF3FF" stroke-width="5" stroke-linecap="round" stroke-linejoin="round"/>
</svg>
