<svg width="74" height="74" viewBox="0 0 74 74" fill="none" xmlns="http://www.w3.org/2000/svg">
<path d="M58.1557 42.9548L46.7807 37.2673C46.3329 37.0442 45.8342 36.9432 45.3349 36.9744C44.8356 37.0056 44.3534 37.1679 43.9369 37.4451L38.7151 40.9287C36.318 39.6109 34.3453 37.6383 33.0276 35.2412L36.5112 30.0193C36.7883 29.6028 36.9507 29.1206 36.9819 28.6213C37.0131 28.122 36.912 27.6233 36.6889 27.1756L31.0014 15.8006C30.7657 15.3245 30.4013 14.924 29.9495 14.6444C29.4978 14.3648 28.9768 14.2174 28.4456 14.2188C24.6745 14.2188 21.0579 15.7168 18.3914 18.3833C15.7249 21.0499 14.2268 24.6665 14.2268 28.4375C14.2362 36.7309 17.5349 44.682 23.3993 50.5463C29.2636 56.4106 37.2147 59.7093 45.5081 59.7188C47.3753 59.7188 49.2243 59.351 50.9494 58.6364C52.6744 57.9219 54.2419 56.8745 55.5622 55.5542C56.8826 54.2338 57.9299 52.6664 58.6445 50.9413C59.359 49.2162 59.7268 47.3672 59.7268 45.5C59.7272 44.9717 59.5804 44.4537 59.3029 44.0042C59.0254 43.5546 58.6281 43.1913 58.1557 42.9548ZM45.5081 54.0312C38.7225 54.0237 32.217 51.3248 27.4189 46.5267C22.6207 41.7286 19.9218 35.2231 19.9143 28.4375C19.9138 26.4651 20.5967 24.5534 21.8469 23.0278C23.097 21.5021 24.8372 20.4569 26.7713 20.0698L30.8521 28.2455L27.3792 33.4141C27.1196 33.8034 26.9602 34.2507 26.9149 34.7163C26.8697 35.182 26.94 35.6516 27.1197 36.0836C29.1543 40.9194 33.0013 44.7664 37.8371 46.801C38.2703 46.9887 38.7435 47.0655 39.214 47.0245C39.6844 46.9836 40.1372 46.8261 40.5315 46.5664L45.7249 43.1041L53.9007 47.1849C53.5106 49.1212 52.4607 50.8622 50.9302 52.1107C49.3996 53.3593 47.4833 54.0381 45.5081 54.0312ZM36.9768 8.80409e-07C30.5943 -0.00139188 24.3201 1.64969 18.7649 4.79253C13.2098 7.93538 8.56295 12.4629 5.27673 17.9345C1.99051 23.406 0.176851 29.6352 0.0122919 36.0156C-0.152268 42.396 1.33788 48.7104 4.33768 54.3441L0.303108 66.4478C-0.0310869 67.4499 -0.0795865 68.5253 0.163046 69.5534C0.405678 70.5815 0.929854 71.5218 1.67682 72.2687C2.42379 73.0157 3.36403 73.5399 4.39216 73.7825C5.42029 74.0252 6.49568 73.9767 7.4978 73.6425L19.6015 69.6079C24.5595 72.2449 30.053 73.7178 35.6652 73.9148C41.2774 74.1117 46.8607 73.0275 51.9913 70.7444C57.122 68.4614 61.665 65.0395 65.2757 60.7385C68.8864 56.4375 71.4698 51.3705 72.8298 45.9221C74.1899 40.4736 74.2908 34.7869 73.1249 29.2936C71.959 23.8003 69.557 18.6448 66.1012 14.2185C62.6454 9.79208 58.2266 6.21118 53.1802 3.74755C48.1338 1.28391 42.5925 0.00230426 36.9768 8.80409e-07ZM36.9768 68.25C31.4776 68.2537 26.0749 66.8056 21.3149 64.0519C20.9663 63.8498 20.5789 63.7241 20.1781 63.683C19.7773 63.6419 19.3724 63.6865 18.9901 63.8138L5.69557 68.25L10.1283 54.9555C10.256 54.5735 10.3012 54.1687 10.2608 53.7679C10.2203 53.3671 10.0952 52.9795 9.89366 52.6307C6.44551 46.6692 5.06109 39.7364 5.95516 32.9077C6.84924 26.0791 9.97184 19.7364 14.8385 14.8635C19.7052 9.99069 26.044 6.86008 32.8715 5.95738C39.699 5.05468 46.6335 6.43034 52.5994 9.87096C58.5653 13.3116 63.229 18.6248 65.867 24.9864C68.5051 31.3481 68.97 38.4025 67.1896 45.0553C65.4093 51.7081 61.4832 57.5874 56.0205 61.7812C50.5578 65.975 43.8637 68.2489 36.9768 68.25Z" fill="white"/>
</svg>
